<svg width="55" height="59" viewBox="0 0 55 59" fill="none" xmlns="http://www.w3.org/2000/svg">
<g filter="url(#filter0_d_5_3127)">
<path d="M10.5926 6.52271C10.1481 6.96715 10 7.70789 10 8.59678V41.3375C10 42.2264 10.2963 42.9672 10.7407 43.4116L10.8889 43.5597L29.2593 25.1894V24.8931L10.5926 6.52271Z" fill="url(#paint0_linear_5_3127)"/>
<path d="M35.1852 31.4117L29.1111 25.3376V24.8932L35.1852 18.8191L35.3333 18.9672L42.5926 23.1154C44.6667 24.3006 44.6667 26.2265 42.5926 27.4117L35.1852 31.4117Z" fill="url(#paint1_linear_5_3127)"/>
<path d="M35.3333 31.2635L29.1111 25.0413L10.5926 43.5598C11.3333 44.3005 12.3704 44.3005 13.7037 43.7079L35.3333 31.2635Z" fill="url(#paint2_linear_5_3127)"/>
<path d="M35.3333 18.8189L13.7037 6.52265C12.3704 5.7819 11.3333 5.93005 10.5926 6.67079L29.1111 25.0412L35.3333 18.8189Z" fill="url(#paint3_linear_5_3127)"/>
<path opacity="0.2" d="M35.1852 31.1152L13.7037 43.2634C12.5185 44.0041 11.4815 43.856 10.7407 43.2634L10.5926 43.4115L10.7407 43.5597C11.4815 44.1523 12.5185 44.3004 13.7037 43.5597L35.1852 31.1152Z" fill="black"/>
<path opacity="0.12" d="M10.5926 43.2635C10.1481 42.819 10 42.0783 10 41.1894V41.3376C10 42.2264 10.2963 42.9672 10.7407 43.4116V43.2635H10.5926ZM42.5926 26.9672L35.1852 31.1153L35.3333 31.2635L42.5926 27.1153C43.6296 26.5227 44.0741 25.782 44.0741 25.0413C44.0741 25.782 43.4815 26.3746 42.5926 26.9672Z" fill="black"/>
<path opacity="0.25" d="M13.7037 6.67083L42.5926 23.1153C43.4815 23.7079 44.0741 24.3005 44.0741 25.0412C44.0741 24.3005 43.6296 23.5597 42.5926 22.9671L13.7037 6.52268C11.6296 5.3375 10 6.22638 10 8.59675V8.7449C10 6.52268 11.6296 5.48564 13.7037 6.67083Z" fill="white"/>
</g>
<defs>
<filter id="filter0_d_5_3127" x="-3.8147e-06" y="0" width="54.1481" height="58.1355" filterUnits="userSpaceOnUse" color-interpolation-filters="sRGB">
<feFlood flood-opacity="0" result="BackgroundImageFix"/>
<feColorMatrix in="SourceAlpha" type="matrix" values="0 0 0 0 0 0 0 0 0 0 0 0 0 0 0 0 0 0 127 0" result="hardAlpha"/>
<feOffset dy="4"/>
<feGaussianBlur stdDeviation="5"/>
<feComposite in2="hardAlpha" operator="out"/>
<feColorMatrix type="matrix" values="0 0 0 0 0 0 0 0 0 0 0 0 0 0 0 0 0 0 0.25 0"/>
<feBlend mode="normal" in2="BackgroundImageFix" result="effect1_dropShadow_5_3127"/>
<feBlend mode="normal" in="SourceGraphic" in2="effect1_dropShadow_5_3127" result="shape"/>
</filter>
<linearGradient id="paint0_linear_5_3127" x1="27.4815" y1="8.3153" x2="2.61777" y2="33.1775" gradientUnits="userSpaceOnUse">
<stop stop-color="#00A0FF"/>
<stop offset="0.007" stop-color="#00A1FF"/>
<stop offset="0.26" stop-color="#00BEFF"/>
<stop offset="0.512" stop-color="#00D2FF"/>
<stop offset="0.76" stop-color="#00DFFF"/>
<stop offset="1" stop-color="#00E3FF"/>
</linearGradient>
<linearGradient id="paint1_linear_5_3127" x1="45.3096" y1="25.0428" x2="9.4622" y2="25.0428" gradientUnits="userSpaceOnUse">
<stop stop-color="#FFE000"/>
<stop offset="0.409" stop-color="#FFBD00"/>
<stop offset="0.775" stop-color="#FFA500"/>
<stop offset="1" stop-color="#FF9C00"/>
</linearGradient>
<linearGradient id="paint2_linear_5_3127" x1="31.9659" y1="28.4427" x2="-1.74963" y2="62.1583" gradientUnits="userSpaceOnUse">
<stop stop-color="#FF3A44"/>
<stop offset="1" stop-color="#C31162"/>
</linearGradient>   
<linearGradient id="paint3_linear_5_3127" x1="5.99555" y1="-4.32773" x2="21.0518" y2="10.7286" gradientUnits="userSpaceOnUse">
<stop stop-color="#32A071"/>
<stop offset="0.069" stop-color="#2DA771"/>
<stop offset="0.476" stop-color="#15CF74"/>
<stop offset="0.801" stop-color="#06E775"/>
<stop offset="1" stop-color="#00F076"/>
</linearGradient>
</defs>
</svg>

