<svg width="12" height="15" viewBox="0 0 12 15" fill="none" xmlns="http://www.w3.org/2000/svg">
<path d="M10.2605 1.53713C9.22803 0.545922 7.79912 0 6.23709 0C3.85101 0 2.38347 0.978083 1.57252 1.79855C0.573081 2.80968 0 4.15228 0 5.48213C0 7.15186 0.698413 8.43343 1.86798 8.91021C1.9465 8.94238 2.02551 8.95858 2.10297 8.95858C2.34971 8.95858 2.54521 8.79713 2.61295 8.53817C2.65244 8.3896 2.74391 8.02307 2.78369 7.86396C2.86883 7.54974 2.80004 7.3986 2.61436 7.17978C2.27609 6.77952 2.11856 6.30623 2.11856 5.69026C2.11856 3.86062 3.48093 1.91612 6.00596 1.91612C8.00947 1.91612 9.25401 3.05484 9.25401 4.88784C9.25401 6.04455 9.00487 7.11577 8.55232 7.9043C8.23784 8.45221 7.68486 9.10533 6.83595 9.10533C6.46886 9.10533 6.13909 8.95454 5.93102 8.69163C5.73447 8.4431 5.66966 8.12206 5.74873 7.78746C5.83803 7.40941 5.95982 7.01507 6.07768 6.63386C6.29264 5.93758 6.49584 5.27995 6.49584 4.75527C6.49584 3.85784 5.94412 3.25482 5.12307 3.25482C4.07962 3.25482 3.26214 4.31461 3.26214 5.66755C3.26214 6.33107 3.43848 6.82737 3.51832 7.01791C3.38686 7.57485 2.60563 10.886 2.45744 11.5104C2.37175 11.8749 1.85559 14.7537 2.70992 14.9833C3.66981 15.2412 4.52784 12.4374 4.61517 12.1206C4.68595 11.8629 4.9336 10.8886 5.08536 10.2896C5.54875 10.736 6.29486 11.0377 7.02084 11.0377C8.38946 11.0377 9.62029 10.4219 10.4866 9.30367C11.3268 8.21909 11.7896 6.70742 11.7896 5.04733C11.7895 3.74953 11.2322 2.47007 10.2605 1.53713Z" fill="black"/>
</svg>
