<svg width="19" height="15" viewBox="0 0 19 15" fill="none" xmlns="http://www.w3.org/2000/svg">
<path d="M17.9985 1.73112C17.7093 1.85876 17.4118 1.9665 17.1079 2.05399C17.4677 1.64914 17.742 1.17279 17.9095 0.651541C17.947 0.534709 17.9081 0.406819 17.8116 0.330386C17.7152 0.253918 17.5812 0.244757 17.4751 0.307342C16.8296 0.688183 16.1333 0.961889 15.4031 1.12191C14.6676 0.406927 13.6686 0 12.6359 0C10.456 0 8.68251 1.76433 8.68251 3.93293C8.68251 4.10373 8.69337 4.27359 8.71488 4.44109C6.00984 4.20481 3.495 2.88209 1.76808 0.774635C1.70654 0.699526 1.61172 0.65902 1.51465 0.666784C1.41753 0.674335 1.33024 0.728832 1.28118 0.812601C0.930914 1.4105 0.745749 2.09436 0.745749 2.79016C0.745749 3.73784 1.08583 4.63697 1.68661 5.33957C1.50393 5.27663 1.32668 5.19798 1.15748 5.10455C1.06666 5.05424 0.955805 5.05502 0.86556 5.10648C0.775279 5.15797 0.718665 5.25262 0.716255 5.3561C0.715823 5.37353 0.715823 5.39096 0.715823 5.40863C0.715823 6.82318 1.48109 8.09674 2.6511 8.79086C2.55057 8.78088 2.45015 8.76639 2.35034 8.74742C2.24743 8.72785 2.14165 8.76374 2.07226 8.84182C2.00277 8.91982 1.97975 9.02857 2.0118 9.12787C2.44486 10.473 3.55985 11.4624 4.90776 11.764C3.78979 12.4606 2.51133 12.8255 1.16924 12.8255C0.889191 12.8255 0.607558 12.8092 0.331932 12.7767C0.195 12.7605 0.0640753 12.8409 0.0174242 12.9705C-0.0292268 13.1001 0.0202298 13.2446 0.136696 13.3189C1.86084 14.4187 3.85443 15 5.90186 15C9.92683 15 12.4448 13.1118 13.8482 11.5277C15.5983 9.55251 16.602 6.93811 16.602 4.35492C16.602 4.247 16.6004 4.13804 16.597 4.0294C17.2875 3.51187 17.882 2.88552 18.3657 2.16564C18.4392 2.05632 18.4312 1.91179 18.3461 1.81117C18.2612 1.71037 18.1195 1.6778 17.9985 1.73112Z" fill="black"/>
</svg>
