<svg width="87" height="65" viewBox="0 0 87 65" fill="none" xmlns="http://www.w3.org/2000/svg">
<path d="M42.0788 63.4065C56.5382 63.4065 68.2599 51.6537 68.2599 37.1558C68.2599 22.658 56.5382 10.9052 42.0788 10.9052C27.6194 10.9052 15.8977 22.658 15.8977 37.1558C15.8977 51.6537 27.6194 63.4065 42.0788 63.4065Z" fill="#1B144E"/>
<path fill-rule="evenodd" clip-rule="evenodd" d="M32.3232 48.8318V55.1097H30.8222V48.8318H28.4878V32.7365H30.8222V18.0739H32.3232V32.7365H35.0748V48.8318H32.3232Z" fill="#3853A4"/>
<path fill-rule="evenodd" clip-rule="evenodd" d="M50.0001 22.4837H52.4601V17.4881H53.9607V22.4837H56.5874V41.1685H53.9607V44.2872H52.4601V41.1685H50.0001V22.4837Z" fill="#8CC640"/>
<path fill-rule="evenodd" clip-rule="evenodd" d="M14.4926 48.8548C12.6367 51.1385 11.0803 53.3998 12.2413 55.4594C13.7601 57.975 15.8894 58.2856 18.1619 58.0797C34.8164 56.5679 58.8698 41.6792 70.774 30.2119C72.9099 28.2862 73.8053 26.2569 73.9409 24.1644C74.0857 21.9174 73.1471 21.4709 71.1077 20.5141C79.08 22.354 76.2531 28.3686 71.6 33.4685C63.0451 42.8444 38.4399 55.8671 26.9098 59.4436C22.5795 60.7865 10.5004 64.0023 9.62074 57.1665C9.16583 53.6339 12.0079 51.4875 14.4926 48.8552V48.8548Z" fill="#3853A4"/>
<path fill-rule="evenodd" clip-rule="evenodd" d="M67.2813 20.4993C70.2883 20.1325 74.5902 20.4784 75.5336 24.0322C76.4075 27.3225 74.3664 30.4511 71.0801 33.776C60.2387 43.0071 49.6938 48.9218 37.4134 55.3736C33.3929 57.486 13.5113 65.2114 10.0976 58.6728C9.13268 56.8253 9.6088 54.9552 10.5172 53.1922C8.87664 55.1406 7.44998 57.2073 7.53966 60.107C8.0839 64.6455 12.2698 65.59 18.3194 64.6956C30.9742 62.8248 43.9046 56.9931 54.8575 50.577C61.9464 45.684 68.427 41.858 74.3832 35.6049C78.8186 30.9484 83.6719 24.7365 80.248 21.254C76.5796 18.5867 71.3501 19.2316 67.2813 20.5V20.4993Z" fill="#1D1752"/>
<path fill-rule="evenodd" clip-rule="evenodd" d="M63.6763 0L64.8288 6.08219L70.5132 7.3153L64.8288 8.54842L63.6763 14.6306L62.5235 8.54842L56.8391 7.3153L62.5235 6.08219L63.6763 0Z" fill="#3853A4"/>
<path fill-rule="evenodd" clip-rule="evenodd" d="M7.39618 16.9939L7.91612 19.7378L10.4812 20.2944L7.91612 20.8508L7.39618 23.595L6.87625 20.8508L4.31146 20.2944L6.87625 19.7378L7.39618 16.9939Z" fill="#3853A4"/>
<path fill-rule="evenodd" clip-rule="evenodd" d="M4.84444 39.2051L5.66114 43.5146L9.68922 44.3884L5.66114 45.2622L4.84444 49.5718L4.02807 45.2622L0 44.3884L4.02807 43.5146L4.84444 39.2051Z" fill="#3853A4"/>
<path fill-rule="evenodd" clip-rule="evenodd" d="M66.4674 53.4214L67.6804 56.5281L70.8134 56.6149L67.9248 57.8343L67.917 61.1706L66.7039 58.0639L63.5706 57.9771L66.4595 56.7577L66.4674 53.4214Z" fill="#3853A4"/>
<path d="M83.0311 19.6942C84.7807 19.6942 86.199 18.2721 86.199 16.5179C86.199 14.7636 84.7807 13.3416 83.0311 13.3416C81.2815 13.3416 79.8632 14.7636 79.8632 16.5179C79.8632 18.2721 81.2815 19.6942 83.0311 19.6942Z" fill="#8CC640"/>
<path fill-rule="evenodd" clip-rule="evenodd" d="M42.4598 14.1656L42.7654 15.6743L44.2732 15.9801L42.7654 16.2859L42.4598 17.7946L42.1541 16.2859L40.6463 15.9801L42.1541 15.6743L42.4598 14.1656Z" fill="#FEFEFE"/>
</svg>
